<?xml version="1.0" standalone="no"?>
<!DOCTYPE svg PUBLIC "-//W3C//DTD SVG 20010904//EN"
 "http://www.w3.org/TR/2001/REC-SVG-20010904/DTD/svg10.dtd">
<svg version="1.0" xmlns="http://www.w3.org/2000/svg"
 width="623.000000pt" height="207.000000pt" viewBox="0 0 623.000000 207.000000"
 preserveAspectRatio="xMidYMid meet">

<g transform="translate(0.000000,207.000000) scale(0.100000,-0.100000)"
fill="#000000" stroke="none">
<path d="M2090 1700 c-47 -11 -128 -26 -180 -35 -52 -9 -149 -27 -215 -41 -66
-14 -154 -32 -195 -40 -134 -26 -184 -36 -264 -55 -60 -14 -88 -17 -115 -9
-39 10 -379 82 -501 105 -41 8 -109 22 -150 31 -127 27 -283 54 -287 50 -2 -2
35 -49 82 -105 98 -115 60 -96 375 -179 102 -27 249 -67 327 -88 l143 -39 2
-272 3 -272 73 65 72 66 0 213 c0 195 2 214 18 219 9 3 114 30 232 61 118 31
272 72 341 91 70 19 133 34 140 35 8 0 39 30 69 65 30 36 64 75 75 87 42 45
58 67 49 66 -5 0 -47 -9 -94 -19z"/>
<path d="M1947 1441 c-57 -51 -56 -51 -262 -110 -99 -29 -210 -61 -247 -72
l-68 -20 0 -402 0 -402 60 62 60 61 1 74 c6 413 8 442 23 453 8 6 57 26 109
44 102 35 134 61 232 186 21 28 64 76 94 108 63 65 62 76 -2 18z"/>
<path d="M400 1435 c32 -38 97 -110 184 -202 69 -73 84 -82 226 -130 l55 -18
5 -332 5 -332 54 -53 53 -53 -21 42 c-17 35 -21 60 -21 144 0 87 2 100 14 90
11 -9 19 -9 35 1 21 13 21 20 21 323 l0 310 -163 48 c-377 111 -390 116 -432
155 -31 29 -35 31 -15 7z"/>
<path d="M2137 1233 c-4 -3 -7 -21 -7 -40 l0 -33 90 0 90 0 0 -203 0 -202 45
3 45 4 0 199 0 199 90 0 90 0 0 40 0 40 -218 0 c-120 0 -222 -3 -225 -7z"/>
<path d="M2670 1000 l0 -240 45 0 45 0 0 105 0 105 135 0 135 0 0 -105 0 -105
45 0 45 0 0 240 0 240 -45 0 -45 0 0 -100 0 -100 -135 0 -135 0 0 100 0 100
-45 0 -45 0 0 -240z"/>
<path d="M3250 1001 l0 -241 45 0 45 0 0 83 0 83 50 -2 c27 -2 54 -5 60 -9 5
-3 33 -39 62 -80 l52 -75 59 0 58 0 -65 85 c-36 47 -66 87 -66 90 0 3 9 5 20
5 29 0 78 27 90 49 15 29 12 133 -5 175 -26 61 -57 70 -242 74 l-163 4 0 -241z
m310 139 c24 -24 27 -87 6 -116 -12 -16 -29 -19 -120 -22 l-106 -4 0 81 0 81
100 0 c87 0 103 -3 120 -20z"/>
<path d="M3877 1231 c-22 -5 -52 -22 -70 -40 l-32 -31 -3 -153 c-3 -169 2
-187 57 -224 31 -21 45 -23 166 -23 218 0 225 7 227 224 1 222 -19 247 -202
252 -58 2 -122 -1 -143 -5z m237 -87 c13 -12 16 -41 16 -154 0 -166 5 -160
-130 -160 -83 0 -93 2 -115 25 -24 23 -25 30 -25 145 0 67 5 130 10 141 10 17
22 19 120 19 85 0 112 -3 124 -16z"/>
<path d="M4340 1000 l0 -240 50 0 50 0 2 169 3 169 138 -169 138 -169 45 0 44
0 0 240 0 240 -45 0 -45 0 -2 -172 -3 -171 -138 171 -138 172 -50 0 -49 0 0
-240z"/>
<path d="M4940 1000 l0 -240 190 0 190 0 0 35 0 35 -145 0 -145 0 0 70 0 70
130 0 130 0 0 35 0 35 -130 0 -130 0 0 60 0 60 145 0 145 0 0 40 0 40 -190 0
-190 0 0 -240z"/>
<path d="M5472 1170 c28 -39 68 -88 90 -110 26 -25 37 -44 32 -52 -5 -7 -48
-65 -97 -128 l-90 -115 58 -3 c47 -3 60 0 68 14 9 16 174 234 255 337 18 23
46 61 63 85 l30 42 -59 0 -58 0 -60 -81 c-58 -80 -59 -80 -74 -58 -8 13 -34
49 -57 81 l-43 58 -55 0 -55 0 52 -70z"/>
<path d="M5707 961 c-15 -18 -27 -36 -27 -39 0 -4 28 -42 61 -84 l60 -78 65 0
64 0 -52 67 c-29 37 -73 89 -98 116 l-46 50 -27 -32z"/>
<path d="M1257 752 l-27 -28 0 -294 0 -295 33 33 32 32 1 273 c1 149 -2 280
-5 290 -6 16 -9 15 -34 -11z"/>
<path d="M2898 603 c7 -3 16 -2 19 1 4 3 -2 6 -13 5 -11 0 -14 -3 -6 -6z"/>
<path d="M4498 603 c7 -3 16 -2 19 1 4 3 -2 6 -13 5 -11 0 -14 -3 -6 -6z"/>
<path d="M1117 593 c-4 -3 -7 -97 -7 -208 l0 -201 38 -37 37 -36 -3 244 -3
245 -28 0 c-15 0 -31 -3 -34 -7z"/>
<path d="M2120 521 c0 -8 96 -11 302 -11 166 0 299 3 295 6 -11 11 -597 16
-597 5z"/>
<path d="M5360 520 c-39 -4 53 -7 229 -8 162 -1 292 0 290 3 -9 8 -450 13
-519 5z"/>
<path d="M1020 382 c0 -96 2 -111 20 -127 20 -18 20 -17 20 98 0 106 -2 117
-20 127 -19 10 -20 8 -20 -98z"/>
<path d="M1433 434 c-44 -49 -52 -63 -55 -105 l-3 -48 32 31 c59 57 85 102 81
142 l-3 37 -52 -57z"/>
<path d="M1315 229 c-4 -6 -5 -12 -2 -15 2 -3 7 2 10 11 7 17 1 20 -8 4z"/>
<path d="M2206 185 c-3 -8 -1 -15 4 -15 6 0 10 7 10 15 0 8 -2 15 -4 15 -2 0
-6 -7 -10 -15z"/>
<path d="M2783 165 c0 -22 2 -30 4 -17 2 12 2 30 0 40 -3 9 -5 -1 -4 -23z"/>
<path d="M3292 170 c0 -19 2 -27 5 -17 2 9 2 25 0 35 -3 9 -5 1 -5 -18z"/>
<path d="M3733 193 c9 -2 23 -2 30 0 6 3 -1 5 -18 5 -16 0 -22 -2 -12 -5z"/>
<path d="M5523 160 c0 -25 2 -35 4 -22 2 12 2 32 0 45 -2 12 -4 2 -4 -23z"/>
<path d="M3151 155 c1 -40 1 -40 10 -10 5 18 5 33 -1 39 -7 7 -10 -4 -9 -29z"/>
<path d="M3513 155 c0 -22 2 -30 4 -17 2 12 2 30 0 40 -3 9 -5 -1 -4 -23z"/>
<path d="M4155 182 c-3 -3 -5 -12 -5 -21 0 -11 3 -12 8 -5 4 7 18 14 32 16
l25 4 -27 5 c-15 4 -30 4 -33 1z"/>
<path d="M4870 185 c0 -5 5 -17 10 -25 5 -8 10 -10 10 -5 0 6 -5 17 -10 25 -5
8 -10 11 -10 5z"/>
<path d="M5085 170 c21 -24 26 -25 19 -6 -3 8 -13 17 -22 21 -13 5 -13 2 3
-15z"/>
<path d="M2310 172 c0 -5 14 -7 30 -4 17 2 30 6 30 8 0 2 -13 4 -30 4 -16 0
-30 -4 -30 -8z"/>
<path d="M2670 173 c8 -3 22 -11 30 -17 13 -10 13 -9 1 7 -7 9 -21 17 -30 16
-13 0 -14 -1 -1 -6z"/>
<path d="M2828 173 c12 -2 32 -2 45 0 12 2 2 4 -23 4 -25 0 -35 -2 -22 -4z"/>
<path d="M3390 158 c0 -19 2 -20 10 -8 13 19 13 30 0 30 -5 0 -10 -10 -10 -22z"/>
<path d="M4773 135 c0 -27 2 -38 4 -22 2 15 2 37 0 50 -2 12 -4 0 -4 -28z"/>
<path d="M4828 173 c7 -3 16 -2 19 1 4 3 -2 6 -13 5 -11 0 -14 -3 -6 -6z"/>
<path d="M4988 173 c12 -2 30 -2 40 0 9 3 -1 5 -23 4 -22 0 -30 -2 -17 -4z"/>
<path d="M3000 156 c0 -8 4 -17 9 -20 5 -4 7 3 4 14 -6 23 -13 26 -13 6z"/>
<path d="M2732 140 c0 -14 2 -19 5 -12 2 6 2 18 0 25 -3 6 -5 1 -5 -13z"/>
<path d="M4625 120 c-4 -17 -5 -34 -2 -36 2 -3 7 10 11 27 8 42 0 50 -9 9z"/>
<path d="M5175 139 c-4 -6 -5 -12 -2 -15 2 -3 7 2 10 11 7 17 1 20 -8 4z"/>
<path d="M3265 131 c-3 -5 -1 -12 5 -16 5 -3 10 1 10 9 0 18 -6 21 -15 7z"/>
<path d="M4294 114 c-7 -25 7 -44 31 -44 6 1 2 5 -8 11 -13 8 -17 18 -13 35 4
13 4 24 1 24 -2 0 -8 -12 -11 -26z"/>
<path d="M4401 124 c0 -11 3 -14 6 -6 3 7 2 16 -1 19 -3 4 -6 -2 -5 -13z"/>
<path d="M3440 121 c0 -6 4 -13 10 -16 6 -3 7 1 4 9 -7 18 -14 21 -14 7z"/>
<path d="M4825 120 l-30 -8 27 -1 c15 0 30 4 33 9 3 6 5 9 3 9 -2 -1 -16 -5
-33 -9z"/>
<path d="M5136 115 c-3 -9 -5 -29 -5 -43 1 -20 3 -17 9 13 8 43 7 57 -4 30z"/>
<path d="M2614 80 c1 -29 5 -35 24 -36 17 -1 18 -1 3 3 -14 3 -21 15 -24 36
-4 31 -4 31 -3 -3z"/>
<path d="M2823 113 c9 -2 25 -2 35 0 9 3 1 5 -18 5 -19 0 -27 -2 -17 -5z"/>
<path d="M3951 110 c0 -8 4 -22 9 -30 12 -18 12 -2 0 25 -6 13 -9 15 -9 5z"/>
<path d="M4978 113 c7 -3 16 -2 19 1 4 3 -2 6 -13 5 -11 0 -14 -3 -6 -6z"/>
<path d="M2731 94 c0 -11 3 -14 6 -6 3 7 2 16 -1 19 -3 4 -6 -2 -5 -13z"/>
<path d="M2782 80 c0 -19 2 -27 5 -17 2 9 2 25 0 35 -3 9 -5 1 -5 -18z"/>
<path d="M5521 86 c-1 -25 -3 -27 -18 -15 -17 12 -17 12 -1 -5 22 -25 35 -17
27 19 l-7 30 -1 -29z"/>
<path d="M5602 90 c0 -14 2 -19 5 -12 2 6 2 18 0 25 -3 6 -5 1 -5 -13z"/>
<path d="M5711 89 c-7 -12 -10 -23 -8 -26 3 -3 11 5 17 17 15 28 8 35 -9 9z"/>
<path d="M4590 90 c0 -5 5 -10 10 -10 6 0 10 5 10 10 0 6 -4 10 -10 10 -5 0
-10 -4 -10 -10z"/>
<path d="M4891 84 c0 -11 3 -14 6 -6 3 7 2 16 -1 19 -3 4 -6 -2 -5 -13z"/>
<path d="M3291 74 c0 -11 3 -14 6 -6 3 7 2 16 -1 19 -3 4 -6 -2 -5 -13z"/>
<path d="M4510 76 c0 -8 4 -17 9 -20 5 -4 7 3 4 14 -6 23 -13 26 -13 6z"/>
<path d="M3796 71 c-4 -7 -5 -15 -2 -18 9 -9 19 4 14 18 -4 11 -6 11 -12 0z"/>
<path d="M4399 63 c-13 -16 -12 -17 4 -4 16 13 21 21 13 21 -2 0 -10 -8 -17
-17z"/>
<path d="M5161 64 c0 -11 3 -14 6 -6 3 7 2 16 -1 19 -3 4 -6 -2 -5 -13z"/>
<path d="M3210 60 c0 -5 5 -10 11 -10 5 0 7 5 4 10 -3 6 -8 10 -11 10 -2 0 -4
-4 -4 -10z"/>
</g>
</svg>
