<?xml version="1.0" standalone="no"?>
<!DOCTYPE svg PUBLIC "-//W3C//DTD SVG 20010904//EN"
 "http://www.w3.org/TR/2001/REC-SVG-20010904/DTD/svg10.dtd">
<svg version="1.0" xmlns="http://www.w3.org/2000/svg"
 width="647.000000pt" height="209.000000pt" viewBox="0 0 647.000000 209.000000"
 preserveAspectRatio="xMidYMid meet">

<g transform="translate(0.000000,209.000000) scale(0.100000,-0.100000)"
fill="#000000" stroke="none">
<path d="M220 1856 c0 -2 7 -9 15 -16 13 -11 14 -10 9 4 -5 14 -24 23 -24 12z"/>
<path d="M2373 1773 c-57 -71 -69 -88 -57 -81 12 8 107 128 101 128 -3 0 -23
-21 -44 -47z"/>
<path d="M270 1805 c0 -4 26 -37 59 -74 l59 -66 98 -24 c113 -27 308 -77 572
-146 l182 -48 1 -261 c0 -144 5 -283 9 -311 5 -29 6 83 3 265 -3 173 -6 316
-7 317 -6 7 -660 174 -798 203 -51 12 -61 19 -117 82 -34 38 -61 66 -61 63z"/>
<path d="M2275 1671 c-26 -10 -385 -99 -645 -159 l-205 -47 -3 -240 -2 -240
-73 -75 c-68 -70 -45 -55 51 34 l42 40 0 232 0 232 48 11 c26 6 81 20 122 31
41 12 122 31 180 44 58 13 185 44 284 70 98 25 186 46 196 46 10 0 20 7 24 15
3 8 4 15 3 14 -1 0 -11 -4 -22 -8z"/>
<path d="M2182 1541 c-23 -27 -42 -52 -42 -55 0 -6 51 51 79 87 29 38 2 14
-37 -32z"/>
<path d="M490 1544 c0 -6 15 -23 32 -40 l33 -29 -25 30 c-14 17 -28 34 -32 40
-5 5 -8 5 -8 -1z"/>
<path d="M606 1405 c69 -84 94 -111 66 -70 -11 17 -44 55 -72 85 l-52 55 58
-70z"/>
<path d="M2035 1380 c-85 -86 -93 -91 -184 -125 -53 -20 -107 -42 -121 -48
l-25 -13 0 -267 0 -267 2 264 3 264 98 37 c151 58 157 62 243 156 45 49 79 89
76 89 -2 0 -44 -40 -92 -90z"/>
<path d="M2447 1434 c-4 -4 -7 -22 -7 -41 l0 -33 80 0 80 0 0 -205 0 -205 45
0 45 0 0 205 0 205 90 0 90 0 0 35 0 35 -187 0 c-104 0 -197 3 -208 6 -11 3
-24 2 -28 -2z"/>
<path d="M2970 1193 l0 -243 51 0 50 0 -2 108 -2 107 127 3 126 3 0 -111 0
-110 45 0 45 0 0 240 0 240 -45 0 -45 0 0 -95 0 -96 -127 3 -128 3 0 94 -1 94
-47 1 -47 1 0 -242z"/>
<path d="M4710 1196 l0 -246 45 0 45 0 2 182 3 182 35 -46 c19 -25 84 -107
145 -182 l109 -136 53 0 53 0 0 243 0 242 -47 -3 -48 -4 2 -181 c2 -147 0
-179 -10 -166 -281 352 -279 349 -318 349 -21 0 -44 3 -53 6 -14 6 -16 -20
-16 -240z"/>
<path d="M3560 1190 l0 -240 48 0 48 0 -4 85 c-5 98 0 104 76 89 43 -8 51 -15
107 -91 l60 -82 59 0 c45 -1 56 2 49 12 -6 6 -36 46 -68 87 -56 73 -56 75 -33
81 77 20 102 62 96 160 -7 122 -40 139 -273 139 l-165 0 0 -240z m331 153 c6
-6 14 -31 16 -56 4 -36 1 -49 -16 -66 -19 -19 -32 -21 -131 -21 l-110 0 0 81
0 81 115 -4 c69 -2 119 -8 126 -15z"/>
<path d="M4169 1406 c-50 -34 -59 -68 -59 -215 0 -139 11 -177 63 -215 24 -18
46 -21 155 -24 141 -4 186 5 223 44 23 25 24 29 24 195 l0 169 -33 32 -32 33
-153 3 c-148 3 -153 2 -188 -22z m301 -66 c18 -18 20 -33 20 -154 0 -167 1
-166 -137 -166 -50 0 -103 4 -117 10 l-26 10 0 144 c0 179 -3 176 142 176 85
0 101 -3 118 -20z"/>
<path d="M5330 1190 l0 -240 180 0 180 0 0 35 0 35 -140 0 -141 0 3 73 3 72
131 3 132 3 4 34 4 35 -138 0 -138 0 0 60 0 60 140 0 140 0 0 35 0 35 -180 0
-180 0 0 -240z"/>
<path d="M6244 1341 c-17 -20 -43 -54 -58 -76 -16 -22 -19 -29 -7 -15 72 83
103 122 100 124 -2 1 -18 -14 -35 -33z"/>
<path d="M1547 1045 c3 -181 7 -332 9 -334 8 -9 2 566 -6 614 -5 29 -6 -90 -3
-280z"/>
<path d="M1130 1000 c0 -194 2 -351 6 -348 7 7 7 689 0 696 -3 3 -6 -154 -6
-348z"/>
<path d="M725 1281 c17 -12 73 -37 125 -58 52 -20 101 -40 108 -46 7 -6 12 -6
12 0 0 5 -21 19 -47 30 -232 100 -237 102 -198 74z"/>
<path d="M6090 1090 c6 -11 13 -20 16 -20 2 0 0 9 -6 20 -6 11 -13 20 -16 20
-2 0 0 -9 6 -20z"/>
<path d="M6005 1060 c-10 -11 -14 -20 -9 -20 5 0 15 9 22 20 7 11 11 20 9 20
-2 0 -12 -9 -22 -20z"/>
<path d="M5969 1013 c-13 -16 -12 -17 4 -4 9 7 17 15 17 17 0 8 -8 3 -21 -13z"/>
<path d="M974 750 c0 -96 2 -136 3 -87 2 48 2 126 0 175 -1 48 -3 8 -3 -88z"/>
<path d="M1435 844 l-40 -24 -5 -303 -5 -303 -27 -32 -26 -32 -7 63 c-4 34 -6
69 -5 77 4 29 -3 445 -7 423 -2 -13 -16 -26 -33 -32 l-29 -10 -3 -218 -3 -218
26 -40 c50 -74 53 -74 152 20 48 47 80 82 72 79 -13 -5 -15 32 -17 284 l-3
291 -40 -25z m33 -159 c0 -95 -3 -165 -9 -165 -5 0 -9 8 -10 18 0 14 -2 14 -9
-3 -5 -11 -10 -15 -11 -10 -2 10 -4 19 -9 40 -1 6 -6 -3 -10 -20 -5 -18 -8 28
-9 117 -1 134 1 148 18 157 10 6 21 7 25 4 3 -3 6 1 6 10 0 10 4 17 9 17 4 0
9 -74 9 -165z m-158 -61 c0 -37 -4 -53 -11 -48 -6 3 -9 19 -5 34 3 15 2 31 -2
35 -4 4 -12 -17 -18 -47 l-11 -53 -1 55 c-1 57 -1 56 46 79 1 0 2 -24 2 -55z"/>
<path d="M1422 685 c0 -16 2 -22 5 -12 2 9 2 23 0 30 -3 6 -5 -1 -5 -18z"/>
<path d="M2588 663 c79 -2 205 -2 280 0 75 1 11 3 -143 3 -154 0 -216 -2 -137
-3z"/>
<path d="M5878 663 c68 -2 176 -2 240 0 64 1 9 3 -123 3 -132 0 -185 -2 -117
-3z"/>
<path d="M1684 632 c-16 -10 -34 -47 -34 -69 0 -10 -15 -30 -33 -45 -30 -23
-35 -34 -41 -89 -3 -34 -13 -74 -22 -87 -16 -24 -16 -24 5 -10 11 8 48 45 81
83 l60 68 0 78 c0 44 -1 79 -2 79 -2 0 -8 -4 -14 -8z"/>
<path d="M1592 577 c-56 -57 -53 -64 5 -10 25 24 44 45 41 48 -2 2 -23 -15
-46 -38z"/>
<path d="M1142 439 c-2 -114 -1 -116 26 -142 l28 -27 2 123 c1 67 -2 129 -7
137 -11 15 -10 16 -24 -30 -3 -9 -9 0 -14 20 -8 29 -10 14 -11 -81z m35 -46
c-2 -16 -4 -3 -4 27 0 30 2 43 4 28 2 -16 2 -40 0 -55z"/>
<path d="M970 518 c0 -13 32 -56 86 -117 2 -2 4 15 4 39 0 39 -2 42 -13 26
-13 -17 -16 -15 -45 25 -19 25 -32 36 -32 27z"/>
<path d="M1106 357 c3 -10 9 -15 12 -12 3 3 0 11 -7 18 -10 9 -11 8 -5 -6z"/>
<path d="M2512 325 c0 -16 2 -22 5 -12 2 9 2 23 0 30 -3 6 -5 -1 -5 -18z"/>
<path d="M5312 330 c0 -14 2 -19 5 -12 2 6 2 18 0 25 -3 6 -5 1 -5 -13z"/>
<path d="M5913 275 c0 -44 2 -61 4 -37 2 23 2 59 0 80 -2 20 -4 1 -4 -43z"/>
<path d="M5963 275 c0 -44 2 -61 4 -37 2 23 2 59 0 80 -2 20 -4 1 -4 -43z"/>
<path d="M3113 275 c0 -38 2 -53 4 -32 2 20 2 52 0 70 -2 17 -4 1 -4 -38z"/>
<path d="M3142 320 c0 -14 2 -19 5 -12 2 6 2 18 0 25 -3 6 -5 1 -5 -13z"/>
<path d="M3750 330 c0 -5 5 -10 11 -10 5 0 7 5 4 10 -3 6 -8 10 -11 10 -2 0
-4 -4 -4 -10z"/>
<path d="M5142 320 c0 -14 2 -19 5 -12 2 6 2 18 0 25 -3 6 -5 1 -5 -13z"/>
<path d="M5783 270 c0 -41 2 -58 4 -37 2 20 2 54 0 75 -2 20 -4 3 -4 -38z"/>
<path d="M3620 321 c0 -6 5 -13 10 -16 6 -3 10 1 10 9 0 9 -4 16 -10 16 -5 0
-10 -4 -10 -9z"/>
<path d="M4627 309 c4 -13 8 -18 11 -10 2 7 -1 18 -6 23 -8 8 -9 4 -5 -13z"/>
<path d="M5993 295 c0 -22 2 -30 4 -17 2 12 2 30 0 40 -3 9 -5 -1 -4 -23z"/>
<path d="M3981 304 c0 -11 3 -14 6 -6 3 7 2 16 -1 19 -3 4 -6 -2 -5 -13z"/>
<path d="M3652 290 c0 -14 2 -19 5 -12 2 6 2 18 0 25 -3 6 -5 1 -5 -13z"/>
<path d="M4093 255 c0 -33 2 -45 4 -27 2 18 2 45 0 60 -2 15 -4 0 -4 -33z"/>
<path d="M3891 284 c0 -11 3 -14 6 -6 3 7 2 16 -1 19 -3 4 -6 -2 -5 -13z"/>
<path d="M4330 279 c0 -13 5 -31 10 -39 7 -11 8 -5 4 20 -8 43 -14 51 -14 19z"/>
<path d="M6072 280 c0 -14 2 -19 5 -12 2 6 2 18 0 25 -3 6 -5 1 -5 -13z"/>
<path d="M3071 274 c0 -11 3 -14 6 -6 3 7 2 16 -1 19 -3 4 -6 -2 -5 -13z"/>
<path d="M3633 245 c0 -27 2 -38 4 -22 2 15 2 37 0 50 -2 12 -4 0 -4 -28z"/>
<path d="M5313 245 c0 -27 2 -38 4 -22 2 15 2 37 0 50 -2 12 -4 0 -4 -28z"/>
<path d="M5143 245 c0 -22 2 -30 4 -17 2 12 2 30 0 40 -3 9 -5 -1 -4 -23z"/>
<path d="M2542 240 c0 -14 2 -19 5 -12 2 6 2 18 0 25 -3 6 -5 1 -5 -13z"/>
<path d="M2952 235 c0 -16 2 -22 5 -12 2 9 2 23 0 30 -3 6 -5 -1 -5 -18z"/>
<path d="M3142 240 c0 -14 2 -19 5 -12 2 6 2 18 0 25 -3 6 -5 1 -5 -13z"/>
<path d="M5522 230 c0 -19 2 -27 5 -17 2 9 2 25 0 35 -3 9 -5 1 -5 -18z"/>
<path d="M3576 237 c3 -10 9 -15 12 -12 3 3 0 11 -7 18 -10 9 -11 8 -5 -6z"/>
<path d="M3892 225 c0 -16 2 -22 5 -12 2 9 2 23 0 30 -3 6 -5 -1 -5 -18z"/>
<path d="M4951 234 c0 -11 3 -14 6 -6 3 7 2 16 -1 19 -3 4 -6 -2 -5 -13z"/>
</g>
</svg>
