<?xml version="1.0" standalone="no"?>
<!DOCTYPE svg PUBLIC "-//W3C//DTD SVG 20010904//EN"
 "http://www.w3.org/TR/2001/REC-SVG-20010904/DTD/svg10.dtd">
<svg version="1.0" xmlns="http://www.w3.org/2000/svg"
 width="382.000000pt" height="382.000000pt" viewBox="0 0 382.000000 382.000000"
 preserveAspectRatio="xMidYMid meet">

<g transform="translate(0.000000,382.000000) scale(0.100000,-0.100000)"
fill="#000000" stroke="none">
<path d="M645 3704 c-44 -8 -115 -26 -157 -40 -215 -71 -401 -273 -468 -509
-19 -68 -20 -101 -20 -1222 0 -989 2 -1162 15 -1224 70 -330 351 -582 701
-629 65 -8 400 -10 1239 -8 l1150 3 80 23 c313 88 533 311 613 619 16 63 17
155 17 1193 0 1264 4 1196 -75 1359 -83 172 -185 277 -345 356 -193 95 -92 89
-1465 91 -1015 2 -1218 0 -1285 -12z m2453 -15 c281 -31 491 -176 612 -423 80
-163 74 -70 78 -1296 2 -793 0 -1115 -8 -1169 -27 -170 -93 -310 -200 -424
-93 -99 -159 -149 -264 -197 -172 -80 -75 -75 -1416 -75 l-1195 0 -83 22 c-46
13 -124 44 -175 70 -75 38 -110 65 -188 143 -86 85 -102 107 -148 202 -98 201
-94 135 -98 1342 -3 741 -1 1074 7 1134 49 369 307 626 675 675 75 10 2311 6
2403 -4z"/>
<path d="M658 3650 c-294 -50 -507 -244 -591 -537 l-22 -78 0 -1115 0 -1115
23 -80 c84 -296 289 -497 582 -571 71 -18 131 -19 1255 -19 l1180 0 84 23
c160 44 255 98 362 204 132 132 208 296 228 493 7 66 8 454 5 1115 -6 1105 -6
1104 -63 1241 -103 245 -327 412 -590 440 -105 11 -2387 10 -2453 -1z m-92
-514 c76 -14 283 -50 459 -81 321 -56 687 -115 715 -115 9 1 5 6 -10 15 -28
15 -30 14 65 40 77 20 115 35 115 45 0 15 30 19 52 7 13 -7 34 -22 46 -35 21
-21 30 -23 71 -17 38 5 52 3 65 -10 22 -23 20 -35 -6 -36 -13 0 -17 -3 -10 -6
7 -3 50 0 95 7 90 12 777 133 1031 180 88 17 161 29 162 27 6 -6 -234 -272
-253 -279 -10 -4 -232 -62 -493 -128 -261 -66 -513 -130 -560 -142 l-85 -23
-5 -312 -5 -312 -95 -99 c-52 -55 -97 -100 -100 -101 -3 0 -5 184 -5 411 l0
411 -583 147 c-320 81 -584 149 -586 151 -7 10 -193 217 -220 247 -37 39 -39
39 140 8z m290 -444 c38 -12 206 -61 374 -111 168 -49 331 -97 363 -106 l57
-16 0 -530 0 -530 -22 7 c-12 3 -35 15 -52 25 -17 11 -34 19 -38 19 -5 0 -8
-63 -8 -139 l0 -139 -37 37 -38 36 -3 487 -4 486 -147 50 c-80 28 -158 54
-172 57 -18 4 -80 65 -180 178 -85 94 -162 179 -171 189 -21 22 -23 32 -4 25
7 -3 44 -14 82 -25z m2172 -39 c-36 -38 -112 -120 -168 -183 -57 -63 -109
-119 -116 -123 -7 -4 -78 -29 -156 -56 -79 -27 -155 -54 -170 -60 l-28 -11 0
-379 0 -380 -33 -33 c-17 -18 -62 -65 -100 -105 l-67 -72 0 604 c0 566 1 604
18 609 9 3 150 44 312 92 162 47 354 103 425 124 72 21 134 39 139 39 5 1 -21
-29 -56 -66z m-986 -868 c5 -40 2 -46 -18 -38 -19 7 -19 73 0 73 8 0 15 -14
18 -35z m-32 -51 c8 -1 27 -5 43 -9 l27 -5 -1 -298 c-2 -266 -3 -288 -13 -211
-11 84 -11 85 -30 68 -10 -10 -23 -16 -27 -13 -5 3 -9 -1 -9 -8 0 -9 -3 -9
-10 2 -12 18 -10 28 -20 -135 -4 -85 -7 -10 -8 254 -2 352 -1 373 16 366 9 -4
24 -9 32 -11z m-130 -189 c0 -21 -5 -25 -29 -25 -17 0 -33 5 -36 10 -10 16 15
40 41 40 19 0 24 -5 24 -25z m-22 -45 l22 0 -1 -192 c-1 -130 -4 -180 -10
-153 -4 22 -8 60 -9 85 0 36 -3 41 -11 28 -14 -25 -37 -22 -42 5 -2 12 -5 -25
-7 -83 -2 -88 -4 -98 -11 -60 -10 57 -11 364 -2 374 4 4 17 5 28 2 11 -3 30
-6 43 -6z m518 -295 c-2 -7 -19 -23 -38 -35 l-33 -23 33 34 c28 31 32 42 32
89 l0 54 -60 -59 c-56 -56 -59 -61 -63 -114 l-3 -56 -2 60 -2 60 68 74 67 75
3 -74 c2 -40 1 -79 -2 -85z m-664 118 c5 -2 8 -85 7 -185 l-1 -180 -39 38 -39
38 0 146 c0 81 3 150 6 153 7 6 49 0 66 -10z m598 -186 c0 -2 -12 -14 -27 -28
l-28 -24 24 28 c23 25 31 32 31 24z m-301 -427 c36 -5 85 -10 109 -10 75 0 44
-17 -45 -24 -48 -4 -93 -12 -100 -18 -13 -10 -36 -8 -108 11 -22 6 -62 11 -90
11 -76 1 -94 19 -20 21 83 1 138 8 150 20 5 5 16 7 24 4 8 -3 44 -10 80 -15z"/>
<path d="M1472 1310 c0 -14 2 -19 5 -12 2 6 2 18 0 25 -3 6 -5 1 -5 -13z"/>
<path d="M1470 1267 c0 -8 9 -22 20 -32 11 -10 20 -13 20 -7 0 7 -9 21 -20 32
-14 14 -20 16 -20 7z"/>
<path d="M1690 1209 c0 -15 -5 -19 -15 -15 -25 9 -21 -144 5 -175 l19 -24 1
118 c0 64 -2 117 -5 117 -3 0 -5 -9 -5 -21z"/>
<path d="M608 143 c7 -3 16 -2 19 1 4 3 -2 6 -13 5 -11 0 -14 -3 -6 -6z"/>
<path d="M3178 143 c7 -3 16 -2 19 1 4 3 -2 6 -13 5 -11 0 -14 -3 -6 -6z"/>
<path d="M868 113 c34 -2 88 -2 120 0 31 2 3 3 -63 3 -66 0 -92 -1 -57 -3z"/>
<path d="M1198 113 c7 -3 16 -2 19 1 4 3 -2 6 -13 5 -11 0 -14 -3 -6 -6z"/>
<path d="M1403 113 c92 -2 242 -2 335 0 92 1 16 3 -168 3 -184 0 -260 -2 -167
-3z"/>
<path d="M1938 113 c18 -2 45 -2 60 0 15 2 0 4 -33 4 -33 0 -45 -2 -27 -4z"/>
<path d="M2202 113 c82 -2 214 -2 295 0 82 1 15 3 -147 3 -162 0 -229 -2 -148
-3z"/>
<path d="M2663 113 c9 -2 23 -2 30 0 6 3 -1 5 -18 5 -16 0 -22 -2 -12 -5z"/>
<path d="M2748 113 c23 -2 59 -2 80 0 20 2 1 4 -43 4 -44 0 -61 -2 -37 -4z"/>
<path d="M2898 113 c17 -2 47 -2 65 0 17 2 3 4 -33 4 -36 0 -50 -2 -32 -4z"/>
</g>
</svg>
